<?xml version="1.0" encoding="utf-8"?>
<!-- Generator: Adobe Illustrator 16.0.4, SVG Export Plug-In . SVG Version: 6.00 Build 0)  -->
<!DOCTYPE svg PUBLIC "-//W3C//DTD SVG 1.1//EN" "http://www.w3.org/Graphics/SVG/1.1/DTD/svg11.dtd">
<svg version="1.1" id="Layer_1" xmlns="http://www.w3.org/2000/svg" xmlns:xlink="http://www.w3.org/1999/xlink" x="0px" y="0px"
	 width="350.902px" height="120.035px" viewBox="1488.271 440.702 350.902 120.035"
	 enable-background="new 1488.271 440.702 350.902 120.035" xml:space="preserve">
<g>
	<path fill="#FFFFFF" d="M1818.998,493.375c0-0.363-0.182-0.545-0.182-0.909c-0.182-0.545-0.363-1.272-0.545-1.817
		c-3.637-10.728-11.091-19.637-21.091-24.728c-0.183,0-0.183-0.182-0.364-0.182c0,0-0.182,0-0.182-0.183
		c-6-3.091-12.363-4.363-19.091-4.363c-5.272,0-10.363,0.909-15.091,2.728c-0.363,0.182-0.545,0.182-0.909,0.363
		c-6.182,2.546-11.636,6.364-16,11.273c0.728,1.091,1.454,2.182,2.182,3.454c0.183,0.546,0.364,0.909,0.546,1.454
		c0.545-0.545,1.091-1.272,1.637-1.817c0.182-0.183,0.363-0.364,0.545-0.546c0.363-0.363,0.728-0.728,1.272-1.272
		c0.183-0.182,0.364-0.364,0.546-0.546c0.363-0.363,0.909-0.727,1.272-1.091c0.182-0.182,0.364-0.182,0.546-0.363
		c0.545-0.546,1.091-0.909,1.636-1.273c0,0,0,0,0.183,0c2-1.454,4.182-2.727,6.545-3.636c0,0,0,0,0.182,0
		c0.728-0.364,1.455-0.728,2.363-0.909l0,0c1.092-0.363,2-0.728,3.092-1.091l0,0c1.091-0.364,2-0.546,3.091-0.728c0,0,0,0,0.182,0
		c1.091-0.182,2-0.363,3.091-0.363c0.182,0,0.363,0,0.545,0c1.092,0,2-0.182,3.092-0.182c5.818,0,11.636,1.272,16.908,4
		c9.092,4.545,15.818,12.182,18.91,21.817c0.182,0.546,0.182,0.909,0.363,1.455l0,0l0,0l0,0l0,0
		c1.091,3.454,1.454,6.909,1.454,10.363v0.182c0,1.091,0,2.183-0.182,3.273c0,0.182,0,0.363,0,0.545
		c-0.182,0.909-0.182,2-0.363,2.909c0,0.363-0.183,0.546-0.183,0.909c-0.182,0.728-0.363,1.637-0.545,2.363
		c-0.182,0.546-0.363,1.091-0.545,1.637c-0.183,0.546-0.364,1.091-0.546,1.818c-0.364,1.091-0.909,2.182-1.454,3.272
		c-0.364,0.728-0.728,1.455-1.273,2.182c-0.363,0.728-0.909,1.455-1.454,2.182c0,0.183-0.182,0.183-0.182,0.364l0,0
		c-0.364,0.545-0.909,1.272-1.455,1.818c-0.182,0.363-0.545,0.545-0.728,0.727c-0.363,0.364-0.545,0.728-0.908,1.091
		c-0.183,0.364-0.546,0.546-0.728,0.909c-0.364,0.364-0.546,0.546-0.909,0.909c-0.363,0.364-0.546,0.546-0.909,0.909
		c-0.182,0.182-0.546,0.546-0.909,0.728c-0.363,0.363-0.728,0.545-1.091,0.909c-0.182,0.182-0.546,0.363-0.728,0.545
		c-1.454,1.091-3.091,2.183-4.727,3.091l-0.183,0.183c-0.545,0.363-1.091,0.545-1.636,0.909c-0.182,0-0.182,0.182-0.364,0.182
		c-0.545,0.182-1.091,0.545-1.636,0.727c-0.182,0-0.182,0-0.364,0.183c-0.545,0.182-1.272,0.545-1.817,0.727l0,0
		c-3.455,1.091-7.092,1.818-10.909,2c-0.364,0-0.546,0-0.909,0c-0.182,0-0.182,0-0.364,0c-5.817,0-11.636-1.272-16.909-4
		c-4-2-7.636-4.727-10.545-8c-0.546,1.273-1.091,2.364-1.818,3.455c-0.363,0.545-0.728,0.909-1.091,1.454
		c3.091,3.091,6.909,5.818,11.091,7.818c5.637,2.909,11.818,4.363,18.182,4.546c0.364,0,0.728,0,1.091,0c0.728,0,1.455,0,2.183,0
		c12.908-0.728,24.545-6.909,32.182-17.091c0.363-0.546,0.727-1.092,1.091-1.637c1.091-1.455,2-3.091,2.909-4.909
		C1820.635,514.102,1821.726,503.557,1818.998,493.375z"/>
	<g>
		<path fill="#F37D21" d="M1747.181,534.648c-2,2.545-4.546,4.727-7.272,6.727c-0.728,18.183,28.363,28.546,36.545,5.637
			c-6.363-0.182-12.545-1.637-18.182-4.545C1754.09,540.466,1750.453,537.739,1747.181,534.648z"/>
		<path fill="#F37D21" d="M1761.544,464.465c-10.728-14.545-25.636-9.272-32.182,0.546c0.363,0.182,0.909,0.182,1.272,0.363
			c4.182,1.273,7.637,3.273,10.363,5.637c1.818,1.454,3.273,3.091,4.364,4.728C1749.908,470.648,1755.362,466.83,1761.544,464.465z"
			/>
		<path fill="#F37D21" d="M1818.998,493.375c2.728,10.183,1.455,20.728-3.09,30c-0.91,1.637-1.818,3.273-2.91,4.909
			C1840.453,543.557,1852.09,493.193,1818.998,493.375z"/>
		<path fill="#F37D21" d="M1818.271,490.83c0.182,0.545,0.363,1.272,0.545,1.818c32-10.728-2.363-54.909-21.636-26.546
			C1807.181,471.193,1814.635,479.92,1818.271,490.83z"/>
		<path fill="#F37D21" d="M1796.635,465.739c11.455-32.364-44.545-33.818-34.182-1.637c4.728-1.818,9.818-2.728,15.091-2.728
			C1784.271,461.375,1790.635,462.648,1796.635,465.739z"/>
		<path fill="#F37D21" d="M1779.726,547.011c7.455,28.182,49.272,8.182,32.183-17.091
			C1804.271,540.102,1792.635,546.466,1779.726,547.011z"/>
	</g>
	<path fill="#1C75BC" d="M1520.635,498.83c-2.909,0-5.272,0.909-7.091,2.909s-2.909,4.909-3.272,8.727h20.728
		c-0.183-3.817-1.273-6.727-3.091-8.727C1526.09,499.739,1523.544,498.83,1520.635,498.83z"/>
	<polygon fill="#1C75BC" points="1608.271,512.284 1626.635,512.284 1617.362,486.83 	"/>
	<path fill="#1C75BC" d="M1813.726,493.92L1813.726,493.92c-0.182-0.546-0.182-1.091-0.363-1.454
		c-3.091-9.637-9.818-17.273-18.909-21.818c-5.272-2.728-11.091-4-16.909-4c-4.546,0-9.091,0.909-13.091,2.363l0,0
		c-6.363,2.363-12,6.363-16.182,11.637c-0.182-0.546-0.363-0.909-0.546-1.455c-0.545-1.091-1.272-2.363-2.182-3.454
		c-1.272-1.637-2.728-3.272-4.363-4.728c-2.728-2.363-6.183-4.363-10.364-5.637c-0.363-0.182-0.908-0.182-1.272-0.363
		c-3.454-1.091-7.454-1.637-11.818-1.637c-6,0-11.454,0.909-16.182,2.909c-5.454,2.183-9.636,5.455-12.546,9.818
		c-3.09,4.363-4.727,9.455-4.727,14.909c0,5.818,1.637,10.909,4.545,15.091c0.182,0.182,0.364,0.364,0.364,0.546
		c-0.546,0.545-1.091,0.908-1.637,1.454c-2.182,2.182-3.454,4.728-4.182,7.454h-9.637v-34.363c0-5.272-1.454-9.636-4.545-12.728
		c-3.091-3.454-7.455-5.091-12.183-5.091c-4.908,0-9.09,1.818-12.182,5.273c-2.909,3.272-4.363,7.454-4.363,12.545v6.363
		l-2.363-5.999c-0.728-2.183-1.455-3.818-2-5.091c-0.728-1.818-1.637-3.637-2.909-5.273c-1.637-2.363-3.637-4.182-6.183-5.636
		c-2.727-1.637-6-2.364-9.454-2.364s-6.728,0.728-9.454,2.364c-2.546,1.454-4.728,3.454-6.364,5.817
		c-0.728,1.092-1.454,2.364-2,3.637c-0.909-1.272-2.182-2.545-3.272-3.637c-3.091-2.727-6.546-4.545-10.545-5.636
		c-3.455-1.091-8-1.455-13.818-1.455h-16c-5.455,0-9.818,1.455-13.092,4.546c-3.454,3.272-5.272,7.818-5.272,13.454v2.183
		c-4.728-2.909-10.545-4.183-16.728-4.183c-4.727,0-9.091,0.728-13.272,2.364c-4.363,1.636-8,4.182-10.909,7.272
		s-5.091,6.909-6.545,11.091c-1.455,4-2,8.363-2,12.909c0,10,3.091,18.182,9.091,24.363c6.182,6.183,14.363,9.455,24.545,9.455
		c4.364,0,8.364-0.546,11.818-1.818c3.091-1.091,5.818-2.363,8.182-4c0.183,0.182,0.183,0.363,0.364,0.546
		c3.091,3.454,7.454,5.272,12.182,5.272s8.909-1.818,12.182-5.272c2.909-3.273,4.546-7.455,4.546-12.728v-6.909h0.909
		c3.272,0,6.363-0.182,9.091-0.728c-0.728,1.637-1.091,2.909-1.455,4c-0.545,1.818-0.909,3.818-0.909,5.637
		c0,4.363,1.818,8.363,5.091,11.454c3.091,3.091,7.091,4.546,11.273,4.546c5.091,0,9.454-2,12.363-5.818
		c1.454-2,2.909-4.728,4.363-8.909l0.364-1.091h10.545l0.546,1.272c0.363,1.091,0.909,2.182,1.454,3.455
		c0.909,2,1.818,3.818,2.909,5.091c1.455,1.818,3.272,3.272,5.272,4.363c2.183,1.091,4.546,1.637,7.273,1.637
		c3.454,0,6.727-1.091,9.454-2.909c2.546,1.272,5.637,1.818,8.909,1.818h30c4,0,7.455-1.092,10.363-3.092
		c5.273,2.728,11.637,4,18.909,4c6.546,0,12.364-1.091,17.455-3.454c1.636-0.728,3.091-1.637,4.545-2.545
		c2.909-1.818,5.273-4.183,7.273-6.728c0.363-0.546,0.727-0.909,1.091-1.455c0.727-1.091,1.272-2.182,1.818-3.454
		c2.908,3.272,6.545,6,10.545,8c5.272,2.728,11.091,4,16.909,4c0.182,0,0.182,0,0.363,0c0.364,0,0.546,0,0.909,0
		c12-0.363,22.909-6.363,29.818-16l0.182-0.182c0.909-1.455,1.818-2.909,2.546-4.364
		C1815.544,512.648,1816.453,503.011,1813.726,493.92z M1539.544,515.557c-1.636,0.909-4,1.272-6.909,1.454h-22.363
		c0.182,2.546,0.545,4.909,1.636,6.909c0.909,2,2.364,3.454,4,4.545c1.818,0.909,3.637,1.455,5.637,1.455
		c1.454,0,2.728-0.182,3.818-0.546c1.091-0.182,2.182-0.727,3.272-1.454s2-1.454,2.909-2.182c0.909-0.909,2-2,3.454-3.273
		c0.546-0.545,1.455-0.727,2.546-0.727c1.272,0,2.182,0.182,2.909,0.909c0.728,0.727,1.091,1.636,1.091,2.727
		c0,1.092-0.545,2.183-1.272,3.637s-2,2.728-3.637,4c-1.636,1.272-3.636,2.182-6.182,3.091c-2.545,0.909-5.272,1.272-8.545,1.272
		c-7.273,0-12.909-2.182-17.092-6.363c-4.182-4.182-6.182-9.818-6.182-17.091c0-3.454,0.364-6.546,1.455-9.454
		c0.909-2.909,2.363-5.455,4.363-7.455c1.818-2,4.182-3.637,7.091-4.728s6-1.636,9.455-1.636c4.363,0,8.182,1.091,11.454,2.909
		c3.272,1.817,5.637,4.363,7.272,7.272c1.637,2.909,2.364,6,2.364,9.091C1542.09,512.83,1541.181,514.648,1539.544,515.557z
		 M1572.09,512.102h-11.455v17.455c0,2.545-0.727,4.363-1.818,5.636c-1.091,1.273-2.545,2-4.363,2s-3.454-0.545-4.545-1.818
		c-1.092-1.272-1.637-3.091-1.637-5.636v-47.455c0-2.727,0.545-4.727,1.818-5.817c1.272-1.273,3.272-1.818,6-1.818h16
		c4.727,0,8.363,0.363,10.909,1.091c2.545,0.728,4.727,1.818,6.545,3.454c1.818,1.637,3.272,3.637,4.182,6s1.455,5.091,1.455,8
		c0,6.364-2,11.091-5.818,14C1585.544,510.466,1579.726,512.102,1572.09,512.102z M1644.635,535.557
		c-1.272,1.272-2.727,1.817-4.363,1.817c-1.091,0-1.818-0.182-2.546-0.545s-1.272-0.909-1.817-1.455
		c-0.364-0.545-0.91-1.454-1.455-2.727c-0.545-1.273-1.091-2.364-1.454-3.273l-2.909-7.636h-24.909l-2.909,7.818
		c-1.091,3.091-2.182,5.091-2.909,6.182c-0.909,1.091-2.182,1.636-4,1.636c-1.637,0-2.909-0.545-4.182-1.636
		s-1.818-2.364-1.818-3.818c0-0.728,0-1.637,0.363-2.546c0.364-0.908,0.728-2.182,1.455-3.817l15.636-40
		c0.546-1.273,1.092-2.546,1.637-4.183c0.545-1.636,1.272-2.908,2-4c0.545-1.091,1.637-1.817,2.728-2.545
		c1.272-0.546,2.728-0.909,4.363-0.909c1.818,0,3.272,0.182,4.364,0.909c1.09,0.728,2,1.454,2.727,2.545
		c0.728,0.909,1.273,2,1.818,3.273c0.363,1.091,1.091,2.727,1.818,4.727l16.363,39.637c1.273,2.909,1.818,5.091,1.818,6.546
		C1646.453,533.011,1645.908,534.284,1644.635,535.557z M1693.181,534.83c-1.091,0.909-2.728,1.454-4.728,1.454h-30
		c-2.728,0-4.545-0.545-5.818-1.818c-1.272-1.272-1.818-3.091-1.818-5.817v-47.273c0-2.545,0.546-4.363,1.637-5.636
		c1.272-1.273,2.728-1.818,4.545-1.818c1.818,0,3.455,0.545,4.546,1.818c1.272,1.272,1.818,3.091,1.818,5.636v44.728h25.272
		c2,0,3.455,0.546,4.546,1.454c1.091,0.909,1.636,2.183,1.636,3.637C1694.816,532.648,1694.271,533.92,1693.181,534.83z
		 M1738.998,527.193c-1.817,2.909-4.727,5.272-8.363,6.909s-8,2.546-13.091,2.546c-6.182,0-11.091-1.092-15.091-3.455
		c-2.728-1.636-4.909-3.818-6.728-6.545c-1.636-2.728-2.545-5.455-2.545-8c0-1.455,0.545-2.728,1.636-3.818
		c1.092-1.091,2.364-1.637,4-1.637c1.273,0,2.364,0.364,3.273,1.272c0.908,0.909,1.636,2.183,2.363,3.818
		c0.728,2,1.637,3.637,2.545,4.909c0.909,1.273,2.183,2.364,3.818,3.273c1.637,0.908,3.818,1.272,6.546,1.272
		c3.636,0,6.546-0.909,8.909-2.546c2.363-1.636,3.454-3.818,3.454-6.363c0-2-0.545-3.637-1.818-4.909
		c-1.272-1.272-2.909-2.182-4.909-2.909c-1.817-0.728-4.545-1.454-7.817-2.182c-4.364-1.091-8.183-2.182-11.091-3.637
		c-2.909-1.272-5.273-3.272-7.092-5.636c-1.636-2.364-2.545-5.273-2.545-8.909c0-3.455,0.909-6.546,2.728-9.091
		c1.817-2.546,4.545-4.546,8-6c3.454-1.455,7.636-2.183,12.363-2.183c3.818,0,7.091,0.546,9.818,1.455
		c2.728,1.091,5.091,2.182,6.909,3.818c1.818,1.636,3.091,3.272,4,4.909c0.909,1.636,1.272,3.272,1.272,4.909
		c0,1.454-0.546,2.727-1.637,4c-1.091,1.272-2.363,1.817-4,1.817c-1.454,0-2.545-0.363-3.272-1.091
		c-0.728-0.727-1.454-1.818-2.363-3.454c-1.091-2.364-2.363-4.182-4-5.455c-1.637-1.272-4.182-2-7.637-2
		c-3.272,0-5.818,0.728-7.818,2.183c-2,1.454-2.909,3.091-2.909,5.091c0,1.272,0.364,2.363,1.091,3.272
		c0.546,0.909,1.455,1.818,2.728,2.363c1.272,0.546,2.364,1.091,3.637,1.455c1.272,0.363,3.272,0.908,6,1.636
		c3.454,0.909,6.728,1.818,9.454,2.728c2.728,1.091,5.091,2.182,7.091,3.637c2,1.454,3.455,3.272,4.364,4.727
		c1.091,2.183,1.636,4.728,1.636,7.818C1741.908,520.83,1740.998,524.284,1738.998,527.193z M1793.181,526.83
		c-0.546,0.728-1.637,1.091-3.091,1.091h-23.637c-1.637,0-2.909-0.363-3.818-1.272s-1.272-1.818-1.272-3.091
		c0-0.728,0.363-1.818,0.909-3.092c0.545-1.272,1.091-2.363,1.818-3.091c2.727-2.909,5.272-5.454,7.636-7.636
		c2.364-2.183,4-3.455,4.909-4.183c1.818-1.272,3.273-2.545,4.363-3.817c1.273-1.273,2.183-2.546,2.728-3.818
		c0.546-1.272,0.909-2.546,0.909-3.818s-0.182-2.546-0.909-3.637s-1.636-2-2.728-2.545c-1.09-0.546-2.363-0.909-3.636-0.909
		c-2.728,0-4.909,1.091-6.546,3.637c-0.182,0.363-0.545,1.272-1.091,2.727c-0.363,1.455-1.091,2.546-1.636,3.273
		c-0.546,0.727-1.455,1.091-2.728,1.091c-1.091,0-2-0.364-2.728-1.091c-0.727-0.728-1.091-1.637-1.091-2.909
		c0-1.455,0.182-2.909,0.909-4.546c0.545-1.637,1.637-3.091,2.909-4.363c1.454-1.273,3.091-2.364,5.091-3.091
		c2-0.909,4.363-1.273,7.091-1.273c3.272,0,6,0.364,8.364,1.455c1.454,0.728,2.908,1.636,4,2.909
		c1.272,1.272,2.182,2.545,2.727,4.182c0.546,1.636,0.909,3.272,0.909,4.909c0,2.728-0.728,5.091-2,7.272s-2.546,3.818-4,5.091
		s-3.636,3.091-6.909,5.818c-3.272,2.728-5.454,4.728-6.727,6.182c-0.546,0.728-1.092,1.455-1.637,2.182h16.727
		c1.637,0,2.91,0.364,3.818,1.091c0.728,0.546,1.273,1.455,1.455,2.546C1794.271,525.193,1793.908,526.102,1793.181,526.83z"/>
	<path fill="#1C75BC" d="M1569.181,484.284h-8.364v18.728h8.364c2.909,0,5.272-0.363,7.272-0.909c2-0.728,3.455-1.637,4.545-3.091
		c0.91-1.455,1.455-3.272,1.637-5.455c0-2.545-0.727-4.908-2.363-6.545C1578.453,485.193,1574.816,484.284,1569.181,484.284z"/>
	<path fill="#FFFFFF" d="M1792.816,521.557c-0.908-0.728-2.182-1.092-3.818-1.092h-16.727c0.545-0.727,1.091-1.454,1.637-2.182
		c1.272-1.454,3.454-3.454,6.727-6.182c3.273-2.728,5.455-4.546,6.909-5.818s2.728-2.909,4-5.091s2-4.545,2-7.272
		c0-1.637-0.363-3.272-0.909-4.909c-0.545-1.637-1.454-2.909-2.727-4.182c-1.092-1.273-2.546-2.182-4-2.909
		c-2.364-1.091-5.092-1.455-8.364-1.455c-2.728,0-5.091,0.364-7.091,1.273c-2,0.727-3.637,1.818-5.091,3.091
		c-1.272,1.272-2.364,2.728-2.909,4.363c-0.728,1.637-0.909,3.091-0.909,4.546c0,1.272,0.364,2.182,1.091,2.909
		c0.728,0.727,1.637,1.091,2.728,1.091c1.272,0,2.182-0.364,2.728-1.091c0.545-0.728,1.272-1.818,1.636-3.273
		c0.546-1.454,0.909-2.363,1.091-2.727c1.637-2.546,3.818-3.637,6.546-3.637c1.272,0,2.546,0.363,3.636,0.909
		c1.092,0.546,2,1.454,2.728,2.546c0.728,1.091,0.909,2.363,0.909,3.636s-0.363,2.546-0.909,3.818
		c-0.545,1.272-1.454,2.546-2.728,3.818c-1.09,1.272-2.545,2.545-4.363,3.818c-0.909,0.727-2.545,2-4.909,4.182
		c-2.363,2.182-4.909,4.728-7.636,7.636c-0.728,0.728-1.273,1.818-1.818,3.092c-0.546,1.272-0.909,2.363-0.909,3.091
		c0,1.272,0.363,2.182,1.272,3.091s2.182,1.272,3.818,1.272h23.637c1.454,0,2.545-0.363,3.091-1.091
		c0.728-0.728,1.091-1.637,1.091-2.728C1794.09,523.011,1793.544,522.102,1792.816,521.557z"/>
	<path fill="#FFFFFF" d="M1532.453,493.557c-3.272-1.818-7.091-2.909-11.455-2.909c-3.454,0-6.545,0.545-9.454,1.636
		s-5.272,2.728-7.091,4.728c-2,2-3.454,4.546-4.363,7.454c-1.091,2.909-1.455,6-1.455,9.455c0,7.272,2,12.909,6.182,17.091
		s9.818,6.363,17.092,6.363c3.272,0,6-0.363,8.545-1.272s4.545-1.818,6.182-3.091s2.909-2.546,3.637-4
		c0.727-1.455,1.272-2.546,1.272-3.637s-0.363-2-1.091-2.727c-0.728-0.728-1.637-0.909-2.909-0.909c-1.091,0-2,0.182-2.546,0.727
		c-1.454,1.273-2.545,2.364-3.454,3.273c-0.909,0.727-1.818,1.454-2.909,2.182s-2.182,1.272-3.272,1.454
		c-1.091,0.364-2.364,0.546-3.818,0.546c-2,0-3.818-0.546-5.637-1.455c-1.636-1.091-3.091-2.545-4-4.545
		c-1.091-2-1.454-4.364-1.636-6.909h22.363c2.909-0.182,5.272-0.546,6.909-1.455c1.637-0.908,2.546-2.727,2.546-5.636
		c0-3.091-0.728-6.182-2.364-9.091C1538.09,497.92,1535.726,495.375,1532.453,493.557z M1510.271,510.466
		c0.363-3.818,1.454-6.728,3.272-8.728s4.182-2.909,7.091-2.909s5.455,0.909,7.273,2.909c1.817,2,2.908,4.909,3.091,8.728H1510.271z
		"/>
	<path fill="#FFFFFF" d="M1595.181,493.193c0-2.909-0.546-5.636-1.455-8c-0.909-2.363-2.363-4.363-4.182-6
		c-1.818-1.636-4-2.727-6.546-3.454c-2.545-0.728-6.182-1.091-10.908-1.091h-16c-2.728,0-4.728,0.545-6,1.818
		c-1.273,1.091-1.818,3.091-1.818,5.817v47.455c0,2.545,0.545,4.363,1.636,5.636c1.092,1.273,2.728,1.818,4.546,1.818
		s3.272-0.727,4.363-2c1.092-1.272,1.818-3.091,1.818-5.636v-17.455h11.455c7.636,0,13.454-1.636,17.272-4.909
		C1593.181,504.284,1595.181,499.557,1595.181,493.193z M1580.998,499.011c-1.09,1.454-2.545,2.363-4.545,3.091
		c-2,0.546-4.363,0.909-7.272,0.909h-8.364v-18.728h8.364c5.636,0,9.272,0.909,11.091,2.728c1.637,1.637,2.363,4,2.363,6.546
		C1582.453,495.739,1581.908,497.557,1580.998,499.011z"/>
	<path fill="#FFFFFF" d="M1628.271,485.375c-0.728-2-1.455-3.636-1.818-4.727c-0.545-1.273-1.091-2.364-1.818-3.273
		c-0.727-1.091-1.637-1.817-2.727-2.545c-1.092-0.728-2.546-0.909-4.364-0.909c-1.636,0-3.091,0.363-4.363,0.909
		c-1.091,0.728-2.183,1.454-2.728,2.545c-0.728,1.092-1.454,2.364-2,4c-0.545,1.637-1.091,2.909-1.637,4.183l-15.636,40
		c-0.728,1.636-1.091,2.909-1.455,3.817c-0.363,0.909-0.363,1.818-0.363,2.546c0,1.454,0.546,2.728,1.818,3.818
		s2.545,1.636,4.182,1.636c1.818,0,3.091-0.545,4-1.636c0.728-1.091,1.818-3.091,2.909-6.182l2.909-7.818h24.909l2.908,7.636
		c0.364,0.909,0.91,2,1.455,3.273c0.545,1.272,1.091,2.182,1.455,2.727c0.545,0.546,1.09,1.092,1.817,1.455s1.455,0.545,2.546,0.545
		c1.636,0,3.091-0.545,4.363-1.817c1.272-1.273,1.818-2.546,1.818-4c0-1.455-0.545-3.637-1.818-6.546L1628.271,485.375z
		 M1608.271,512.284l9.091-25.454l9.272,25.454H1608.271z"/>
	<path fill="#FFFFFF" d="M1688.635,526.102h-25.272v-44.728c0-2.545-0.546-4.363-1.818-5.636c-1.091-1.273-2.728-1.818-4.546-1.818
		c-1.817,0-3.272,0.545-4.545,1.818c-1.091,1.272-1.637,3.091-1.637,5.636v47.273c0,2.727,0.546,4.545,1.818,5.817
		c1.273,1.273,3.091,1.818,5.818,1.818h30c2,0,3.637-0.545,4.728-1.454s1.636-2.182,1.636-3.637c0-1.454-0.545-2.727-1.636-3.636
		S1690.635,526.102,1688.635,526.102z"/>
	<path fill="#FFFFFF" d="M1735.908,504.648c-2-1.455-4.364-2.546-7.092-3.637c-2.727-0.909-6-1.818-9.454-2.728
		c-2.728-0.727-4.728-1.272-6-1.636c-1.272-0.364-2.363-0.909-3.637-1.455c-1.272-0.545-2.182-1.454-2.728-2.363
		c-0.727-0.909-1.09-2-1.09-3.272c0-2,0.908-3.637,2.908-5.091c2-1.455,4.546-2.183,7.818-2.183c3.455,0,6,0.728,7.637,2
		c1.637,1.273,2.909,3.091,4,5.455c0.909,1.636,1.637,2.728,2.363,3.454c0.728,0.728,1.818,1.091,3.273,1.091
		c1.636,0,2.908-0.545,4-1.817c1.091-1.273,1.636-2.546,1.636-4c0-1.637-0.363-3.273-1.272-4.909c-0.909-1.637-2.182-3.273-4-4.909
		c-1.818-1.637-4.182-2.728-6.909-3.818c-2.728-0.909-6-1.455-9.818-1.455c-4.728,0-8.909,0.728-12.363,2.183
		c-3.455,1.454-6.182,3.454-8,6c-1.818,2.545-2.728,5.636-2.728,9.091c0,3.636,0.909,6.545,2.545,8.909
		c1.818,2.363,4.183,4.363,7.092,5.636c2.908,1.455,6.727,2.546,11.091,3.637c3.272,0.728,6,1.454,7.817,2.182
		c2,0.728,3.637,1.637,4.91,2.909c1.272,1.272,1.817,2.909,1.817,4.909c0,2.545-1.091,4.728-3.454,6.363
		c-2.363,1.637-5.272,2.546-8.909,2.546c-2.728,0-4.909-0.364-6.546-1.272c-1.636-0.909-2.908-2-3.818-3.273
		c-0.908-1.272-1.817-2.909-2.545-4.909c-0.728-1.636-1.454-2.909-2.363-3.817c-0.909-0.909-2-1.273-3.273-1.273
		c-1.636,0-2.908,0.546-4,1.637c-1.091,1.091-1.636,2.363-1.636,3.818c0,2.545,0.909,5.272,2.545,8c1.818,2.727,4,4.909,6.728,6.545
		c4,2.364,8.909,3.455,15.091,3.455c5.091,0,9.455-0.909,13.091-2.546c3.637-1.636,6.546-4,8.364-6.909
		c2-2.909,2.909-6.363,2.909-10c0-3.091-0.546-5.636-1.637-7.818C1739.362,507.92,1737.908,506.102,1735.908,504.648z"/>
</g>
</svg>
